<svg width="171" height="36" viewBox="0 0 171 36" fill="none" xmlns="http://www.w3.org/2000/svg">
<path d="M6.61656 34.9684H0.5L11.6421 4.80236C12.8144 1.6394 14.9848 0.423828 18.3158 0.423828C21.612 0.423828 23.7708 1.62699 24.8966 4.80236L35.621 34.9684H29.458L19.813 7.66763C19.5345 6.86139 19.0122 6.51409 18.2578 6.51409C17.5034 6.51409 16.9927 6.86139 16.6561 7.66763L6.61656 34.9684Z" fill="#E3A422"/>
<path d="M45.7895 34.9682H40.2881V8.02715C40.2881 3.49977 42.7835 0.436035 47.9135 0.436035C52.4284 0.436035 55.0166 2.85476 55.9103 7.12166L60.3788 27.8856C60.6573 29.0888 61.3189 29.7958 62.4911 29.7958C63.6634 29.7958 64.325 29.0888 64.6035 27.8856L69.072 7.12166C69.9657 2.85476 72.3217 0.436035 76.8831 0.436035C82.0131 0.436035 84.5085 3.49977 84.5085 8.02715V34.9682H79.0071V8.32483C79.0071 7.02243 78.2062 6.16658 76.7438 6.16658C75.4323 6.16658 74.7707 6.87359 74.5386 7.97753L69.9773 28.7415C68.9907 33.2193 66.8203 35.576 62.4563 35.576C58.0343 35.576 55.7246 33.1076 54.7845 28.7415L50.2696 7.97753C50.0375 6.87359 49.3295 6.16658 48.0644 6.16658C46.602 6.16658 45.8011 7.02243 45.8011 8.32483V34.9682H45.7895Z" fill="#E3A422"/>
<path d="M97.7149 1.03223V34.9689H92.167V1.03223H97.7149Z" fill="#E3A422"/>
<path d="M131.62 1.03223V6.96123H118.552C112.435 6.96123 109.754 10.2234 109.754 18.0254C109.754 25.7653 112.389 29.0399 118.552 29.0399H123.821C126.92 29.0399 128.243 27.0305 128.243 24.2645C128.243 21.548 126.932 19.9356 124.343 19.9356H117.287V14.7632H124.912C130.553 14.7632 133.327 18.4843 133.327 24.3637C133.327 30.2927 130.553 34.9689 123.45 34.9689H118.563C109.301 34.9689 104.218 29.3872 104.218 18.0254C104.218 6.6139 109.348 1.03223 118.563 1.03223H131.62Z" fill="#E3A422"/>
<path d="M141.494 34.9684H135.378L146.52 4.80236C147.692 1.6394 149.863 0.423828 153.194 0.423828C156.49 0.423828 158.649 1.62699 159.775 4.80236L170.499 34.9684H164.336L154.691 7.66763C154.412 6.86139 153.89 6.51409 153.136 6.51409C152.381 6.51409 151.871 6.86139 151.534 7.66763L141.494 34.9684Z" fill="#E3A422"/>
</svg>
